#!OML:ASF X:\für Bonn\!DataBase\2005_08_12_Daniel\c3d\Daniel.ASF
:FULLY-SPECIFIED
:DEGREES
491
root 19.2393 1.19921 0.60643 -1700.99 260.314 145.634
lowerback 27.9391 -3.03215 0.149478
upperback 5.96779 -4.67917 -2.44388
thorax -8.96029 -2.50354 -1.14657
lowerneck -13.1383 2.01649 -4.11587
upperneck 5.33529 3.3326 0.119038
head 4.05539 1.53002 1.0315
rclavicle -5.56597e-014 7.41389e-014
rhumerus -405.913 -7.29824 291.242
rradius 13.706
rwrist 62.6026
rhand -8.21382 738.192
rfingers 7.12502
rthumb 17.7031 708.978
lclavicle -5.56597e-014 7.41389e-014
lhumerus -589.873 153.86 -488.421
lradius 17.0879
lwrist -54.4859
lhand -4.49352 -725.941
lfingers 7.12502
lthumb 21.28 22.911
rfemur -509.286 -164.13 537.879
rtibia 15.5749
rfoot -41.2168 -14.3986
rtoes 35.8893
lfemur 15.6439 719.634 -16.0319
ltibia 41.7217
lfoot 138.583 552.795
ltoes 26.267
492
root 19.2313 1.19809 0.606131 -1701.29 260.363 145.935
lowerback 27.9713 -3.01917 0.160059
upperback 5.95791 -4.65829 -2.4323
thorax -8.9866 -2.49323 -1.14523
lowerneck -13.2115 2.02684 -4.11597
upperneck 5.40349 3.35169 0.113125
head 4.09426 1.53759 1.03351
rclavicle 7.95139e-016 -5.1282e-014
rhumerus -405.92 -7.20031 291.169
rradius 13.7219
rwrist 62.5948
rhand -8.23797 738.155
rfingers 7.12502
rthumb 17.6799 708.939
lclavicle 7.95139e-016 -5.1282e-014
lhumerus -589.911 153.78 -488.512
lradius 17.0712
lwrist -54.4912
lhand -4.47851 -725.925
lfingers 7.12502
lthumb 21.2944 22.925
rfemur -509.308 -164.036 537.8
rtibia 15.6456
rfoot -41.0849 -14.1939
rtoes 35.6333
lfemur 15.5955 719.472 -16.159
ltibia 41.7862
lfoot 138.503 552.729
ltoes 26.1769
493
root 19.2236 1.19651 0.60606 -1701.43 260.441 146.05
lowerback 28.0276 -3.02282 0.205111
upperback 5.93927 -4.6481 -2.40634
thorax -9.03636 -2.48839 -1.14238
lowerneck -13.222 2.04999 -4.07393
upperneck 5.43543 3.38263 0.0385399
head 4.10888 1.54897 1.00368
rclavicle -1.03368e-014 -3.10912e-014
rhumerus -405.935 -7.05876 291.077
rradius 13.7429
rwrist 62.4984
rhand -8.21356 738.073
rfingers 7.12502
rthumb 17.7033 708.859
lclavicle -1.03368e-014 -3.10912e-014
lhumerus -589.959 153.785 -488.52
lradius 17.0791
lwrist -54.409
lhand -4.49373 -725.896
lfingers 7.12502
lthumb 21.2798 22.9555
rfemur -509.29 -163.923 537.758
rtibia 15.6921
rfoot -41.052 -13.9294
rtoes 35.5793
lfemur 15.5558 719.329 -16.2128
ltibia 41.843
lfoot 138.527 552.688
ltoes 26.1138
494
root 19.2179 1.19526 0.605372 -1701.62 260.48 146.249
lowerback 28.047 -3.00868 0.20506
upperback 5.92364 -4.62752 -2.38903
thorax -9.06149 -2.47765 -1.12896
lowerneck -13.2738 2.06161 -4.02056
upperneck 5.49412 3.39789 -0.0220909
head 4.1419 1.55317 0.976671
rclavicle -1.05753e-013 1.13557e-013
rhumerus -405.948 -7.04677 291.068
rradius 13.7398
rwrist 62.5338
rhand -8.25474 738.048
rfingers 7.12502
rthumb 17.6637 708.83
lclavicle -1.05753e-013 1.13557e-013
lhumerus -590.039 153.636 -488.678
lradius 17.0628
lwrist -54.5618
lhand -4.52218 -725.956
lfingers 7.12502
lthumb 21.2524 22.8992
rfemur -509.305 -163.825 537.697
rtibia 15.7352
rfoot -41.0789 -13.6968
rtoes 35.7539
lfemur 15.4978 719.167 -16.3316
ltibia 41.8788
lfoot 138.516 552.632
ltoes 25.9986
495
root 19.2115 1.19449 0.604773 -1701.83 260.548 146.464
lowerback 28.0716 -3.00334 0.230839
upperback 5.91507 -4.61087 -2.36448
thorax -9.08259 -2.4697 -1.1208
lowerneck -13.3095 2.07931 -4.01216
upperneck 5.52607 3.42355 -0.0383323
head 4.16039 1.56427 0.972793
rclavicle -3.18055e-014 6.30994e-014
rhumerus -405.945 -6.94565 291.008
rradius 13.7577
rwrist 62.4943
rhand -8.24487 738.029
rfingers 7.12502
rthumb 17.6732 708.812
lclavicle -3.18055e-014 6.30994e-014
lhumerus -590.069 153.618 -488.688
lradius 17.0682
lwrist -54.4827
lhand -4.49283 -725.964
lfingers 7.12502
lthumb 21.2806 22.8875
rfemur -509.305 -163.764 537.689
rtibia 15.7616
rfoot -41.2413 -13.3545
rtoes 36.1152
lfemur 15.4694 718.976 -16.4444
ltibia 41.8991
lfoot 138.507 552.552
ltoes 26.0737
496
root 19.2064 1.19536 0.604799 -1702.05 260.589 146.669
lowerback 28.0993 -2.99936 0.2584
upperback 5.90009 -4.59829 -2.37235
thorax -9.11566 -2.46371 -1.14806
lowerneck -13.2912 2.09345 -3.93362
upperneck 5.55168 3.43391 -0.0942324
head 4.16785 1.56797 0.940528
rclavicle 3.57812e-014 -1.37377e-013
rhumerus -405.965 -6.94985 290.984
rradius 13.7246
rwrist 62.5377
rhand -8.25761 738.015
rfingers 7.12502
rthumb 17.661 708.797
lclavicle 3.57812e-014 -1.37377e-013
lhumerus -590.082 153.655 -488.712
lradius 17.0634
lwrist -54.4078
lhand -4.5129 -725.921
lfingers 7.12502
lthumb 21.2614 22.9327
rfemur -509.271 -163.702 537.634
rtibia 15.7808
rfoot -41.4533 -13.0867
rtoes 36.5376
lfemur 15.4682 718.79 -16.5752
ltibia 41.8999
lfoot 138.53 552.486
ltoes 26.1406
497
root 19.2024 1.19632 0.605332 -1702.21 260.644 146.827
lowerback 28.0946 -2.99688 0.275894
upperback 5.89948 -4.58694 -2.3423
thorax -9.11218 -2.45842 -1.12878
lowerneck -13.377 2.10899 -3.94737
upperneck 5.62092 3.46347 -0.110363
head 4.20958 1.57948 0.942567
rclavicle 6.52014e-014 -9.01558e-014
rhumerus -405.933 -6.93278 290.996
rradius 13.7176
rwrist 62.6055
rhand -8.26275 737.969
rfingers 7.12502
rthumb 17.656 708.75
lclavicle 6.52014e-014 -9.01558e-014
lhumerus -590.13 153.581 -488.753
lradius 17.0585
lwrist -54.487
lhand -4.50157 -725.927
lfingers 7.12502
lthumb 21.2722 22.9258
rfemur -509.267 -163.687 537.651
rtibia 15.7915
rfoot -41.7877 -12.8012
rtoes 37.0748
lfemur 15.4592 718.568 -16.7187
ltibia 41.8796
lfoot 138.535 552.375
ltoes 26.2903
498
root 19.1986 1.19648 0.605848 -1702.41 260.683 147.023
lowerback 28.1199 -2.99525 0.288663
upperback 5.8866 -4.57975 -2.32757
thorax -9.13876 -2.45466 -1.12062
lowerneck -13.4095 2.12412 -3.90653
upperneck 5.67223 3.48378 -0.162106
head 4.2358 1.58649 0.92065
rclavicle 3.49861e-014 -1.42178e-014
rhumerus -405.928 -6.88886 290.992
rradius 13.7038
rwrist 62.6407
rhand -8.28245 737.981
rfingers 7.12502
rthumb 17.637 708.76
lclavicle 3.49861e-014 -1.42178e-014
lhumerus -590.203 153.509 -488.826
lradius 17.0656
lwrist -54.5053
lhand -4.50115 -725.926
lfingers 7.12502
lthumb 21.2726 22.9267
rfemur -509.233 -163.617 537.6
rtibia 15.7907
rfoot -42.0881 -12.5082
rtoes 37.4638
lfemur 15.4676 718.35 -16.8783
ltibia 41.8438
lfoot 138.587 552.306
ltoes 26.3669
499
root 19.1961 1.19616 0.605765 -1702.65 260.745 147.266
lowerback 28.1402 -2.98775 0.33607
upperback 5.88412 -4.55588 -2.3252
thorax -9.1541 -2.4441 -1.15257
lowerneck -13.4271 2.1329 -3.85466
upperneck 5.67554 3.49016 -0.194425
head 4.2418 1.58895 0.901254
rclavicle -9.14409e-014 8.72292e-014
rhumerus -405.932 -6.96672 291.015
rradius 13.6766
rwrist 62.7415
rhand -8.34568 737.955
rfingers 7.12502
rthumb 17.5762 708.729
lclavicle -9.14409e-014 8.72292e-014
lhumerus -590.202 153.508 -488.858
lradius 17.0673
lwrist -54.4958
lhand -4.46679 -725.951
lfingers 7.12502
lthumb 21.3057 22.8978
rfemur -509.218 -163.641 537.649
rtibia 15.771
rfoot -42.5951 -12.3007
rtoes 37.5149
lfemur 15.4785 718.15 -17.006
ltibia 41.7908
lfoot 138.649 552.232
ltoes 26.4888
500
root 19.1944 1.19554 0.606139 -1702.84 260.785 147.454
lowerback 28.1685 -2.98683 0.351702
upperback 5.87148 -4.54893 -2.31178
thorax -9.18224 -2.44056 -1.1473
lowerneck -13.4552 2.14297 -3.84981
upperneck 5.70338 3.50664 -0.219587
head 4.25773 1.59501 0.894079
rclavicle -1.19271e-014 -1.00761e-013
rhumerus -405.93 -7.11564 291.144
rradius 13.644
rwrist 62.9782
rhand -8.34109 737.943
rfingers 7.12502
rthumb 17.5806 708.718
lclavicle -1.19271e-014 -1.00761e-013
lhumerus -590.242 153.493 -488.877
lradius 17.066
lwrist -54.4729
lhand -4.49749 -725.957
lfingers 7.12502
lthumb 21.2762 22.8957
rfemur -509.193 -163.649 537.666
rtibia 15.736
rfoot -43.1837 -12.1423
rtoes 37.0766
lfemur 15.4964 717.885 -17.1958
ltibia 41.7279
lfoot 138.668 552.131
ltoes 26.6838
501
root 19.1937 1.19595 0.606263 -1702.94 260.838 147.55
lowerback 28.1833 -2.99285 0.383688
upperback 5.86945 -4.54608 -2.29385
thorax -9.19252 -2.43978 -1.14582
lowerneck -13.5523 2.14891 -3.87722
upperneck 6.13089 3.51991 -0.147408
head 3.95858 1.60471 0.826398
rclavicle 1.00187e-013 -2.03967e-013
rhumerus -405.896 -7.17997 291.199
rradius 13.6045
rwrist 63.0609
rhand -8.35635 737.948
rfingers 7.12502
rthumb 17.5659 708.721
lclavicle 1.00187e-013 -2.03967e-013
lhumerus -590.295 153.404 -488.949
lradius 17.0703
lwrist -54.5277
lhand -4.46493 -725.932
lfingers 7.12502
lthumb 21.3074 22.9164
rfemur -509.148 -163.64 537.702
rtibia 15.687
rfoot -43.7944 -12.0058
rtoes 36.266
lfemur 15.5092 717.65 -17.333
ltibia 41.6523
lfoot 138.71 552.1
ltoes 26.7564
502
root 19.1925 1.19575 0.606602 -1703.14 260.87 147.743
lowerback 28.21 -2.98293 0.39223
upperback 5.86664 -4.52963 -2.28111
thorax -9.20791 -2.43187 -1.14102
lowerneck -13.5829 2.1522 -3.85931
upperneck 6.14685 3.52611 -0.18623
head 3.96934 1.60534 0.812622
rclavicle 8.74653e-015 4.71896e-014
rhumerus -405.86 -7.28235 291.274
rradius 13.5477
rwrist 63.184
rhand -8.39032 737.969
rfingers 7.12502
rthumb 17.5332 708.74
lclavicle 8.74653e-015 4.71896e-014
lhumerus -590.305 153.385 -488.957
lradius 17.078
lwrist -54.529
lhand -4.41425 -725.953
lfingers 7.12502
lthumb 21.3561 22.8901
rfemur -509.109 -163.685 537.741
rtibia 15.6221
rfoot -44.335 -11.8432
rtoes 35.5425
lfemur 15.5343 717.4 -17.5115
ltibia 41.567
lfoot 138.743 552.049
ltoes 26.8436
503
root 19.1922 1.19666 0.606878 -1703.34 260.894 147.949
lowerback 28.2119 -2.98386 0.390981
upperback 5.86297 -4.53101 -2.27667
thorax -9.21258 -2.43244 -1.13464
lowerneck -13.6398 2.17302 -3.80419
upperneck 6.19253 3.55141 -0.228618
head 3.99384 1.61554 0.793836
rclavicle 1.27222e-014 5.49841e-014
rhumerus -405.802 -7.4628 291.42
rradius 13.4606
rwrist 63.4292
rhand -8.40965 738.024
rfingers 7.12502
rthumb 17.5146 708.793
lclavicle 1.27222e-014 5.49841e-014
lhumerus -590.32 153.398 -488.954
lradius 17.0773
lwrist -54.4804
lhand -4.43378 -725.958
lfingers 7.12502
lthumb 21.3374 22.887
rfemur -509.08 -163.742 537.791
rtibia 15.5388
rfoot -44.6397 -11.7805
rtoes 35.3943
lfemur 15.5518 717.113 -17.7293
ltibia 41.47
lfoot 138.714 551.974
ltoes 26.8903
504
root 19.1927 1.19715 0.606399 -1703.44 260.924 148.049
lowerback 28.2211 -2.98533 0.396803
upperback 5.86672 -4.53058 -2.2639
thorax -9.21219 -2.43254 -1.1235
lowerneck -13.6934 2.18204 -3.8
upperneck 6.216 3.56754 -0.255293
head 4.00996 1.62111 0.78705
rclavicle 5.48646e-014 -1.6569e-014
rhumerus -405.739 -7.6852 291.583
rradius 13.3755
rwrist 63.7307
rhand -8.43663 738.038
rfingers 7.12502
rthumb 17.4887 708.805
lclavicle 5.48646e-014 -1.6569e-014
lhumerus -590.37 153.282 -489.048
lradius 17.072
lwrist -54.5594
lhand -4.44177 -725.989
lfingers 7.12502
lthumb 21.3297 22.8575
rfemur -509.039 -163.841 537.894
rtibia 15.4451
rfoot -44.8437 -11.7164
rtoes 35.6974
lfemur 15.5746 716.836 -17.9084
ltibia 41.3555
lfoot 138.733 551.964
ltoes 26.8063
505
root 19.1926 1.198 0.607031 -1703.66 260.957 148.264
lowerback 28.2406 -2.98373 0.406588
upperback 5.85928 -4.52471 -2.2526
thorax -9.22984 -2.42962 -1.11744
lowerneck -13.7237 2.18851 -3.81237
upperneck 6.24745 3.58054 -0.258379
head 4.02412 1.62625 0.789707
rclavicle 3.89618e-014 -7.10593e-014
rhumerus -405.715 -7.88465 291.751
rradius 13.3115
rwrist 63.9735
rhand -8.4548 738.059
rfingers 7.12502
rthumb 17.4712 708.824
lclavicle 3.89618e-014 -7.10593e-014
lhumerus -590.414 153.255 -489.077
lradius 17.0786
lwrist -54.5634
lhand -4.3891 -725.991
lfingers 7.12502
lthumb 21.3803 22.8491
rfemur -509.003 -164.035 538.059
rtibia 15.3249
rfoot -45.0386 -11.5603
rtoes 36.2464
lfemur 15.6218 716.502 -18.1309
ltibia 41.23
lfoot 138.632 551.929
ltoes 26.7567
